HIERARCHY
ROOT hip
{
  OFFSET 0 0 0
  CHANNELS 6 Xposition Yposition Zposition Zrotation Yrotation Xrotation
  JOINT abdomen
  {
    OFFSET 0 20.6881 -0.73152
    CHANNELS 3 Zrotation Xrotation Yrotation
    JOINT chest
    {
      OFFSET 0 11.7043 -0.48768
      CHANNELS 3 Zrotation Xrotation Yrotation
      JOINT neck
      {
        OFFSET 0 22.1894 -2.19456
        CHANNELS 3 Zrotation Xrotation Yrotation
        JOINT head
        {
          OFFSET -0.24384 7.07133 1.2192
          CHANNELS 3 Zrotation Xrotation Yrotation
          JOINT leftEye
          {
            OFFSET 4.14528 8.04674 8.04672
            CHANNELS 3 Zrotation Xrotation Yrotation
            End Site
            {
              OFFSET 1 0 0
            }
          }
          JOINT rightEye
          {
            OFFSET -3.6576 8.04674 8.04672
            CHANNELS 3 Zrotation Xrotation Yrotation
            End Site
            {
              OFFSET 1 0 0
            }
          }
        }
      }
      JOINT rCollar
      {
        OFFSET -2.68224 19.2634 -4.8768
        CHANNELS 3 Zrotation Xrotation Yrotation
        JOINT rShldr
        {
          OFFSET -8.77824 -1.95073 1.46304
          CHANNELS 3 Zrotation Xrotation Yrotation
          JOINT rForeArm
          {
            OFFSET -28.1742 -1.7115 0.48768
            CHANNELS 3 Zrotation Xrotation Yrotation
            JOINT rHand
            {
              OFFSET -22.5879 0.773209 7.07136
              CHANNELS 3 Zrotation Xrotation Yrotation
              JOINT rThumb1
              {
                OFFSET -1.2192 -0.487915 3.41376
                CHANNELS 3 Zrotation Xrotation Yrotation
                JOINT rThumb2
                {
                  OFFSET -3.37035 -0.52449 3.41376
                  CHANNELS 3 Zrotation Xrotation Yrotation
                  End Site
                  {
                    OFFSET -1.78271 -1.18214 1.43049
                  }
                }
              }
              JOINT rIndex1
              {
                OFFSET -7.75947 0.938293 5.60832
                CHANNELS 3 Zrotation Xrotation Yrotation
                JOINT rIndex2
                {
                  OFFSET -2.54057 -0.884171 1.56538
                  CHANNELS 3 Zrotation Xrotation Yrotation
                  End Site
                  {
                    OFFSET -1.62519 -0.234802 1.16502
                  }
                }
              }
              JOINT rMid1
              {
                OFFSET -8.24714 1.18213 3.41376
                CHANNELS 3 Zrotation Xrotation Yrotation
                JOINT rMid2
                {
                  OFFSET -3.10165 -0.590103 1.0647
                  CHANNELS 3 Zrotation Xrotation Yrotation
                  End Site
                  {
                    OFFSET -2.48547 -0.328903 0.83742
                  }
                }
              }
              JOINT rRing1
              {
                OFFSET -8.82822 0.546677 1.51678
                CHANNELS 3 Zrotation Xrotation Yrotation
                JOINT rRing2
                {
                  OFFSET -2.60934 -0.819778 -0.0198488
                  CHANNELS 3 Zrotation Xrotation Yrotation
                  End Site
                  {
                    OFFSET -2.33842 -0.294052 0.168128
                  }
                }
              }
              JOINT rPinky1
              {
                OFFSET -8.27202 -0.0477905 -0.4584
                CHANNELS 3 Zrotation Xrotation Yrotation
                JOINT rPinky2
                {
                  OFFSET -1.82734 -0.647385 -0.700984
                  CHANNELS 3 Zrotation Xrotation Yrotation
                  End Site
                  {
                    OFFSET -1.69225 -0.51767 -0.607171
                  }
                }
              }
            }
          }
        }
      }
      JOINT lCollar
      {
        OFFSET 2.68224 19.2634 -4.8768
        CHANNELS 3 Zrotation Xrotation Yrotation
        JOINT lShldr
        {
          OFFSET 8.77824 -1.95073 1.46304
          CHANNELS 3 Zrotation Xrotation Yrotation
          JOINT lForeArm
          {
            OFFSET 28.1742 -1.7115 0.48768
            CHANNELS 3 Zrotation Xrotation Yrotation
            JOINT lHand
            {
              OFFSET 22.5879 0.773209 7.07136
              CHANNELS 3 Zrotation Xrotation Yrotation
              JOINT lThumb1
              {
                OFFSET 1.2192 -0.487915 3.41376
                CHANNELS 3 Zrotation Xrotation Yrotation
                JOINT lThumb2
                {
                  OFFSET 3.37035 -0.52449 3.41376
                  CHANNELS 3 Zrotation Xrotation Yrotation
                  End Site
                  {
                    OFFSET 1.78271 -1.18214 1.43049
                  }
                }
              }
              JOINT lIndex1
              {
                OFFSET 7.75947 0.938293 5.60832
                CHANNELS 3 Zrotation Xrotation Yrotation
                JOINT lIndex2
                {
                  OFFSET 2.54057 -0.884171 1.56538
                  CHANNELS 3 Zrotation Xrotation Yrotation
                  End Site
                  {
                    OFFSET 1.62519 -0.234802 1.16502
                  }
                }
              }
              JOINT lMid1
              {
                OFFSET 8.24714 1.18213 3.41376
                CHANNELS 3 Zrotation Xrotation Yrotation
                JOINT lMid2
                {
                  OFFSET 3.10165 -0.590103 1.0647
                  CHANNELS 3 Zrotation Xrotation Yrotation
                  End Site
                  {
                    OFFSET 2.48547 -0.328903 0.83742
                  }
                }
              }
              JOINT lRing1
              {
                OFFSET 8.82822 0.546677 1.51678
                CHANNELS 3 Zrotation Xrotation Yrotation
                JOINT lRing2
                {
                  OFFSET 2.60934 -0.819778 -0.0198488
                  CHANNELS 3 Zrotation Xrotation Yrotation
                  End Site
                  {
                    OFFSET 2.33842 -0.294052 0.168128
                  }
                }
              }
              JOINT lPinky1
              {
                OFFSET 8.27202 -0.0477905 -0.4584
                CHANNELS 3 Zrotation Xrotation Yrotation
                JOINT lPinky2
                {
                  OFFSET 1.82734 -0.647385 -0.700984
                  CHANNELS 3 Zrotation Xrotation Yrotation
                  End Site
                  {
                    OFFSET 1.69225 -0.51767 -0.607171
                  }
                }
              }
            }
          }
        }
      }
    }
  }
  JOINT rButtock
  {
    OFFSET -8.77824 4.35084 1.2192
    CHANNELS 3 Zrotation Xrotation Yrotation
    JOINT rThigh
    {
      OFFSET 0 -1.70687 -2.19456
      CHANNELS 3 Zrotation Xrotation Yrotation
      JOINT rShin
      {
        OFFSET 0 -36.8199 0.73152
        CHANNELS 3 Zrotation Xrotation Yrotation
        JOINT rFoot
        {
          OFFSET 0.73152 -45.1104 -5.12064
          CHANNELS 3 Zrotation Xrotation Yrotation
          End Site
          {
            OFFSET -1.1221 -3.69964 12.103
          }
        }
      }
    }
  }
  JOINT lButtock
  {
    OFFSET 8.77824 4.35084 1.2192
    CHANNELS 3 Zrotation Xrotation Yrotation
    JOINT lThigh
    {
      OFFSET 0 -1.70687 -2.19456
      CHANNELS 3 Zrotation Xrotation Yrotation
      JOINT lShin
      {
        OFFSET 0 -36.8199 0.73152
        CHANNELS 3 Zrotation Xrotation Yrotation
        JOINT lFoot
        {
          OFFSET -0.73152 -45.1104 -5.12064
          CHANNELS 3 Zrotation Xrotation Yrotation
          End Site
          {
            OFFSET 1.1221 -3.69964 12.103
          }
        }
      }
    }
  }
}
MOTION
Frames:	4
Frame Time:	0.00833333
-62.7309 84.8839 -54.3436 0.0 0.0 0.0 -0.194078 -0.000752046 -0.00553945 -0.0535366 -0.00112971 -0.00927453 -5.52309e-15 0.0 2.17421e-17 -1.65457e-14 3.18055e-15 4.34841e-17 -0.0 0.0 0.0 -0.0 0.0 0.0 -2.68501e-15 -7.76503e-19 1.98785e-16 -5.69019e-14 2.17421e-16 7.95139e-16 -9.97004e-13 2.97581e-13 -6.36111e-15 -1.14097e-11 -3.01208e-13 1.27222e-14 -2.69169e-11 -1.39162e-14 5.08889e-14 -4.64997e-11 -3.18055e-14 9.78021e-14 -2.69143e-11 -1.39149e-14 4.13472e-14 7.73091 5.47488 0.417314 -2.69182e-11 -1.42131e-14 5.40694e-14 2.90554 0.965183 0.102902 -2.69144e-11 -1.41137e-14 5.48646e-14 10.2786 0.731801 0.0259123 -2.6927e-11 -9.54166e-15 6.36111e-14 2.22167 -0.733487 -0.20892 -2.88114e-15 -1.35888e-18 -1.98785e-16 -5.96221e-14 1.30452e-16 -7.95139e-16 -9.97402e-13 -3.00761e-13 3.49861e-14 -1.14129e-11 2.86772e-13 9.54166e-15 -2.69172e-11 -3.57921e-14 6.36111e-14 -4.64715e-11 -6.36111e-14 1.04163e-13 -2.69222e-11 -3.65764e-14 7.31528e-14 -7.73091 5.47488 -0.417314 -2.69151e-11 -3.63776e-14 6.04305e-14 -2.90554 0.965183 -0.102902 -2.69167e-11 -3.61788e-14 5.96354e-14 -10.2786 0.731801 -0.0259123 -2.69099e-11 -3.29983e-14 4.77083e-14 -2.22167 -0.733487 0.20892 -2.03217e-16 0.0 -3.88251e-19 0.355872 -2.82713 -0.0340699 -0.0066552 -0.431856 -0.0584484 -0.502563 3.25829 0.123802 2.03217e-16 0.0 3.88251e-19 -0.651343 -3.58304 0.0525566 0.00445989 0.937459 0.0381192 0.504951 2.64491 -0.11159
-57.6993 83.8282 -59.8952 -152.307 82.2675 -153.867 -0.0245803 3.97376 0.0394006 0.368555 -1.6832 0.0473402 -4.04911 0.605029 -2.81167 4.90745 4.19322 -4.73959 -0.0 0.0 0.0 -0.0 0.0 0.0 -1.96607e-14 -2.61455e-13 -9.22485e-15 21.6668 3.83386 -0.966756 -5.29586 -2.66805 7.96776 0.00657903 1.8114 0.254126 2.54657e-10 3.12963e-10 -4.40441e-10 4.37421e-10 5.42635e-10 -7.64239e-10 2.54659e-10 3.12964e-10 -4.40449e-10 7.73091 5.47488 0.417314 2.54656e-10 3.12964e-10 -4.4044e-10 2.90554 0.965183 0.102902 2.54661e-10 3.12964e-10 -4.40438e-10 10.2786 0.731801 0.0259123 2.5465e-10 3.12967e-10 -4.4043e-10 2.22167 -0.733487 -0.20892 -1.97869e-14 -2.61457e-13 -9.59757e-15 -21.0048 2.7007 0.987688 5.00028 -2.45253 -7.60406 -0.00931775 2.17208 -0.304517 4.01996e-10 -1.11934e-10 4.90526e-10 6.98948e-10 -1.97436e-10 8.44764e-10 4.0199e-10 -1.11932e-10 4.90537e-10 -7.73091 5.47488 -0.417314 4.01998e-10 -1.11934e-10 4.90524e-10 -2.90554 0.965183 -0.102902 4.01995e-10 -1.11934e-10 4.90522e-10 -10.2786 0.731801 -0.0259123 4.02002e-10 -1.11931e-10 4.90511e-10 -2.22167 -0.733487 0.20892 -2.03217e-16 0.0 -3.88251e-19 -0.838705 -3.57483 0.839141 0.0082521 6.43482 0.0630054 -0.550126 -0.675242 -1.13724 2.03217e-16 0.0 3.88251e-19 4.68122 -6.94448 -4.91486 0.00199445 10.2635 -0.0977484 0.201256 0.709257 -3.15252
-57.6941 83.8995 -59.362 -152.385 82.3349 -154.246 0.142012 8.17268 0.0816855 0.823158 -3.46341 0.105554 -8.26895 1.23795 -5.78787 10.855 8.53112 -9.83864 -0.0 0.0 0.0 -0.0 0.0 0.0 -3.99814e-14 -5.82431e-13 -2.21396e-14 44.7339 7.89606 -2.00174 -10.0893 -5.31131 16.4365 -0.00408022 3.75027 0.527008 5.8837e-10 6.70403e-10 -9.35407e-10 1.01113e-09 1.16245e-09 -1.62321e-09 5.88371e-10 6.70404e-10 -9.35412e-10 7.73091 5.47488 0.417314 5.88368e-10 6.70405e-10 -9.35407e-10 2.90554 0.965183 0.102902 5.88375e-10 6.70405e-10 -9.35403e-10 10.2786 0.731801 0.0259123 5.88366e-10 6.70408e-10 -9.35398e-10 2.22167 -0.733487 -0.20892 -4.0032e-14 -5.82435e-13 -2.24875e-14 -43.2963 5.5249 2.04644 9.58444 -4.90077 -15.6861 0.00608569 4.42603 -0.62202 8.98949e-10 -2.40588e-10 1.05207e-09 1.56257e-09 -4.2445e-10 1.81173e-09 8.98941e-10 -2.40583e-10 1.05208e-09 -7.73091 5.47488 -0.417314 8.98951e-10 -2.40587e-10 1.05207e-09 -2.90554 0.965183 -0.102902 8.98947e-10 -2.40587e-10 1.05206e-09 -10.2786 0.731801 -0.0259123 8.98954e-10 -2.40584e-10 1.05205e-09 -2.22167 -0.733487 0.20892 -2.03217e-16 0.0 -3.88251e-19 -2.08995 -4.34601 1.75806 -0.00839259 13.6721 0.195816 -0.788409 -4.82361 -2.47711 2.03217e-16 0.0 3.88251e-19 9.73719 -10.3675 -10.2818 0.0496469 20.0719 -0.253352 -0.328917 -1.28389 -6.30328
-57.6932 83.9276 -58.8472 -151.489 82.3621 -153.49 0.295369 11.9227 0.131841 1.22274 -5.04733 0.161133 -11.9698 1.79761 -8.43872 16.8205 12.232 -14.5172 -0.0 0.0 0.0 -0.0 0.0 0.0 -5.36121e-14 -7.84364e-13 -2.80721e-14 65.3953 11.4884 -2.95299 -13.7178 -7.38632 24.0896 -0.0286518 5.43378 0.765437 8.17806e-10 9.38917e-10 -1.32143e-09 1.40526e-09 1.62797e-09 -2.29291e-09 8.17806e-10 9.38919e-10 -1.32143e-09 7.73091 5.47488 0.417314 8.17803e-10 9.3892e-10 -1.32143e-09 2.90554 0.965183 0.102902 8.17812e-10 9.3892e-10 -1.32142e-09 10.2786 0.731801 0.0259123 8.17805e-10 9.38922e-10 -1.32142e-09 2.22167 -0.733487 -0.20892 -5.35984e-14 -7.84369e-13 -2.83951e-14 -63.296 8.09241 2.98957 13.0936 -6.84035 -22.9639 0.0416923 6.51549 -0.918831 1.25982e-09 -3.35731e-10 1.47145e-09 2.18979e-09 -5.92181e-10 2.53408e-09 1.25981e-09 -3.35723e-10 1.47146e-09 -7.73091 5.47488 -0.417314 1.25982e-09 -3.35729e-10 1.47145e-09 -2.90554 0.965183 -0.102902 1.25982e-09 -3.35728e-10 1.47145e-09 -10.2786 0.731801 -0.0259123 1.25983e-09 -3.35726e-10 1.47144e-09 -2.22167 -0.733487 0.20892 -2.03217e-16 0.0 -3.88251e-19 -3.15926 -5.06621 2.59071 -0.0535527 20.1679 0.324623 -1.16831 -8.52517 -3.69962 2.03217e-16 0.0 3.88251e-19 13.5789 -13.2827 -15.1558 0.145064 28.9149 -0.416732 -1.02041 -3.11786 -9.24771
